<svg
  width="214px"
  height="44px"
  viewBox="0 0 214 44"
  version="1.1"
  xmlns="http://www.w3.org/2000/svg"
  class="w-full max-w-[160px]"
>
  <g stroke="none" stroke-width="1" fill="none" fill-rule="evenodd">
    <g transform="translate(-37.000000, -40.000000)" fill="currentColor" fill-rule="nonzero">
      <g id="somm" transform="translate(37.774000, 40.264000)">
        <path
          d="M15.318,42.92 C22.57,42.92 29.082,39.146 29.082,30.414 C29.082,23.68 25.234,20.424 18.426,15.762 C12.654,11.766 11.174,10.73 11.174,8.214 C11.174,6.216 12.506,4.662 15.022,4.662 C19.906,4.662 24.05,9.25 25.456,14.874 L27.528,14.874 L26.862,0.962 L24.79,0.962 L24.05,2.738 C23.606,3.7 22.866,3.922 21.83,3.182 C20.202,1.924 17.464,0.444 13.764,0.444 C6.66,0.444 0.592,4.884 0.592,12.802 C0.592,17.538 2.96,21.016 9.99,25.752 C17.094,30.562 18.352,31.598 18.352,34.114 C18.352,37.074 16.724,38.628 13.764,38.628 C7.844,38.628 3.404,32.93 2.146,25.086 L0,25.086 L0.74,42.032 L2.812,42.032 L3.552,40.478 C3.996,39.516 4.662,39.368 5.624,40.034 C7.474,41.292 10.508,42.92 15.318,42.92 Z"
          id="Path"
        />
        <path
          d="M52.17,42.92 C64.602,42.92 72.15,34.188 72.15,21.386 C72.15,8.288 64.602,0.444 52.17,0.444 C39.664,0.444 32.19,9.102 32.19,21.904 C32.19,35.076 39.664,42.92 52.17,42.92 Z M48.6682111,37.9447823 C43.5022528,36.3653903 45.1871053,23.261412 48.1295342,13.6371609 C49.4493001,9.32040124 52.1334613,4.33744244 55.6717889,5.41921775 C60.8377472,6.9986097 59.1528947,20.102588 56.2104658,29.7268391 C54.8906999,34.0435988 52.2065387,39.0265576 48.6682111,37.9447823 Z"
          id="Shape"
        />
        <path
          d="M137.158,12.58 C137.158,3.996 133.236,0.37 127.834,0.37 C121.47,0.37 117.77,5.106 114.736,9.62 L114.366,9.62 C113.552,3.182 110,0.37 105.264,0.37 C98.826,0.37 95.052,5.106 92.018,9.62 L91.796,9.62 L91.796,1.702 L89.65,-7.10542736e-15 L79.438,4.218 L73.148,6.734 L74.036,8.88 C78.55,7.03 78.698,8.362 78.698,13.986 L78.698,33.004 C78.698,38.11 77.736,39.59 73.296,39.59 L73.296,41.736 L95.422,41.736 L95.422,39.59 C92.462,39.59 91.796,38.11 91.796,33.004 L91.796,13.838 C94.386,9.62 96.458,8.51 98.308,8.51 C100.38,8.51 101.416,10.064 101.416,13.172 L101.416,33.004 C101.416,38.11 100.75,39.59 97.79,39.59 L97.79,41.736 L118.14,41.736 L118.14,39.59 C115.18,39.59 114.514,38.11 114.514,33.004 L114.514,13.69 C117.104,9.62 119.028,8.51 120.878,8.51 C122.95,8.51 124.06,10.064 124.06,13.172 L124.06,33.004 C124.06,38.11 123.394,39.59 120.434,39.59 L120.434,41.736 L142.338,41.736 L142.338,39.59 C138.12,39.59 137.158,38.11 137.158,33.004 L137.158,12.58 Z"
          id="Path"
        />
        <path
          d="M207.086,12.58 C207.086,3.996 203.164,0.37 197.762,0.37 C191.398,0.37 187.698,5.106 184.664,9.62 L184.294,9.62 C183.48,3.182 179.928,0.37 175.192,0.37 C168.754,0.37 164.98,5.106 161.946,9.62 L161.724,9.62 L161.724,1.702 L159.578,-3.55271368e-15 L149.366,4.218 L143.076,6.734 L143.964,8.88 C148.478,7.03 148.626,8.362 148.626,13.986 L148.626,33.004 C148.626,38.11 147.664,39.59 143.224,39.59 L143.224,41.736 L165.35,41.736 L165.35,39.59 C162.39,39.59 161.724,38.11 161.724,33.004 L161.724,13.838 C164.314,9.62 166.386,8.51 168.236,8.51 C170.308,8.51 171.344,10.064 171.344,13.172 L171.344,33.004 C171.344,38.11 170.678,39.59 167.718,39.59 L167.718,41.736 L188.068,41.736 L188.068,39.59 C185.108,39.59 184.442,38.11 184.442,33.004 L184.442,13.69 C187.032,9.62 188.956,8.51 190.806,8.51 C192.878,8.51 193.988,10.064 193.988,13.172 L193.988,33.004 C193.988,38.11 193.322,39.59 190.362,39.59 L190.362,41.736 L212.266,41.736 L212.266,39.59 C208.048,39.59 207.086,38.11 207.086,33.004 L207.086,12.58 Z"
          id="Path"
        />
      </g>
    </g>
  </g>
</svg>
